<?xml version="1.0" encoding="utf-8" standalone="no"?>
<!DOCTYPE svg PUBLIC "-//W3C//DTD SVG 1.1//EN"
  "http://www.w3.org/Graphics/SVG/1.1/DTD/svg11.dtd">
<svg role="img" aria-labelledby="svg-title svg-desc" xmlns:xlink="http://www.w3.org/1999/xlink" width="396.850394pt" height="345.826772pt" viewBox="0 0 396.850394 345.826772" xmlns="http://www.w3.org/2000/svg" version="1.1">
 <title id="svg-title">Fig. S3 ThermoRoute PRE model and calibration architecture</title>
 <desc id="svg-desc">A four-column schematic shows the strictly checked seven-variable input contract, WLEVEL exclusion, construction-buffer/router/TCN distinctions, learned proposal and mixture, separate point/quantile/event heads, anchor-only numerical bound, and final CQR interval and Platt probability outputs.</desc>
 <metadata>
  <rdf:RDF xmlns:dc="http://purl.org/dc/elements/1.1/" xmlns:cc="http://creativecommons.org/ns#" xmlns:rdf="http://www.w3.org/1999/02/22-rdf-syntax-ns#">
   <cc:Work>
    <dc:type rdf:resource="http://purl.org/dc/dcmitype/StillImage"/>
    <dc:format>image/svg+xml</dc:format>
    <dc:creator>
     <cc:Agent>
      <dc:title>ThermoRoute PRE supporting-figure renderer</dc:title>
     </cc:Agent>
    </dc:creator>
   </cc:Work>
  </rdf:RDF>
 </metadata>
 <defs>
  <style type="text/css">*{stroke-linejoin: round; stroke-linecap: butt}</style>
 </defs>
 <g id="figure_1">
  <g id="patch_1">
   <path d="M 0 345.826772 
L 396.850394 345.826772 
L 396.850394 0 
L 0 0 
z
" style="fill: #ffffff"/>
  </g>
  <g id="axes_1">
   <g id="patch_2">
    <path d="M 9.92126 331.993701 
L 386.929134 331.993701 
L 386.929134 13.833071 
L 9.92126 13.833071 
z
" style="fill: #ffffff"/>
   </g>
   <g id="patch_3">
    <path d="M 89.480598 266.400314 
Q 114.20573 143.354162 225.786917 88.381933 
" style="fill: none; stroke: #e69f00; stroke-linecap: round"/>
    <path d="M 222.20927 88.36088 
L 225.786917 88.381933 
L 223.623486 91.231419 
z
" style="fill: #e69f00; stroke: #e69f00; stroke-linecap: round"/>
   </g>
   <g id="patch_4">
    <path d="M 190.717807 266.366674 
Q 183.090408 172.145035 227.112016 89.756228 
" style="fill: none; stroke: #008c7a; stroke-linecap: round"/>
    <path d="M 224.192787 91.824586 
L 227.112016 89.756228 
L 227.015165 93.332625 
z
" style="fill: #008c7a; stroke: #008c7a; stroke-linecap: round"/>
   </g>
   <g id="patch_5">
    <path d="M 9.544252 162.414085 
L 104.173228 162.414085 
Q 105.68126 162.414085 105.68126 161.141443 
L 105.68126 47.876258 
Q 105.68126 46.603616 104.173228 46.603616 
L 9.544252 46.603616 
Q 8.03622 46.603616 8.03622 47.876258 
L 8.03622 161.141443 
Q 8.03622 162.414085 9.544252 162.414085 
z
" style="fill: #dceaf4; stroke: #0072b2; stroke-linejoin: miter"/>
   </g>
   <g id="patch_6">
    <path d="M 11.806299 206.956573 
L 101.911181 206.956573 
Q 105.68126 206.956573 105.68126 203.774967 
L 105.68126 177.049474 
Q 105.68126 173.867868 101.911181 173.867868 
L 11.806299 173.867868 
Q 8.03622 173.867868 8.03622 177.049474 
L 8.03622 203.774967 
Q 8.03622 206.956573 11.806299 206.956573 
z
" style="fill: url(#hca565c2b4f); stroke: #d55e00; stroke-linejoin: miter"/>
   </g>
   <g id="patch_7">
    <path d="M 9.544252 299.223156 
L 104.173228 299.223156 
Q 105.68126 299.223156 105.68126 297.950513 
L 105.68126 226.046211 
Q 105.68126 224.773569 104.173228 224.773569 
L 9.544252 224.773569 
Q 8.03622 224.773569 8.03622 226.046211 
L 8.03622 297.950513 
Q 8.03622 299.223156 9.544252 299.223156 
z
" style="fill: #fff7d1; stroke: #e69f00; stroke-linejoin: miter"/>
   </g>
   <g id="patch_8">
    <path d="M 110.582362 111.508384 
L 192.016063 111.508384 
Q 193.524094 111.508384 193.524094 110.235742 
L 193.524094 57.421077 
Q 193.524094 56.148435 192.016063 56.148435 
L 110.582362 56.148435 
Q 109.074331 56.148435 109.074331 57.421077 
L 109.074331 110.235742 
Q 109.074331 111.508384 110.582362 111.508384 
z
" style="fill: #dcefea; stroke: #008c7a; stroke-linejoin: miter"/>
   </g>
   <g id="patch_9">
    <path d="M 106.812283 175.14051 
L 201.44126 175.14051 
Q 202.949291 175.14051 202.949291 173.867868 
L 202.949291 121.053203 
Q 202.949291 119.780561 201.44126 119.780561 
L 106.812283 119.780561 
Q 105.304252 119.780561 105.304252 121.053203 
L 105.304252 173.867868 
Q 105.304252 175.14051 106.812283 175.14051 
z
" style="fill: #dceaf4; stroke: #0072b2; stroke-linejoin: miter"/>
   </g>
   <g id="patch_10">
    <path d="M 110.582362 235.59103 
L 192.016063 235.59103 
Q 193.524094 235.59103 193.524094 234.318387 
L 193.524094 191.048542 
Q 193.524094 189.775899 192.016063 189.775899 
L 110.582362 189.775899 
Q 109.074331 189.775899 109.074331 191.048542 
L 109.074331 234.318387 
Q 109.074331 235.59103 110.582362 235.59103 
z
" style="fill: #f9eaf3; stroke: #cc79a7; stroke-linejoin: miter"/>
   </g>
   <g id="patch_11">
    <path d="M 110.582362 289.678337 
L 192.016063 289.678337 
Q 193.524094 289.678337 193.524094 288.405694 
L 193.524094 248.317455 
Q 193.524094 247.044813 192.016063 247.044813 
L 110.582362 247.044813 
Q 109.074331 247.044813 109.074331 248.317455 
L 109.074331 288.405694 
Q 109.074331 289.678337 110.582362 289.678337 
z
" style="fill: #dcefea; stroke: #008c7a; stroke-linejoin: miter"/>
   </g>
   <g id="patch_12">
    <path d="M 219.914646 136.961235 
L 293.808189 136.961235 
Q 295.31622 136.961235 295.31622 135.688592 
L 295.31622 89.23714 
Q 295.31622 87.964498 293.808189 87.964498 
L 219.914646 87.964498 
Q 218.406614 87.964498 218.406614 89.23714 
L 218.406614 135.688592 
Q 218.406614 136.961235 219.914646 136.961235 
z
" style="fill: #dceaf4; stroke: #0072b2; stroke-linejoin: miter"/>
   </g>
   <g id="patch_13">
    <path d="M 219.914646 283.315124 
L 293.808189 283.315124 
Q 295.31622 283.315124 295.31622 282.042482 
L 295.31622 235.59103 
Q 295.31622 234.318387 293.808189 234.318387 
L 219.914646 234.318387 
Q 218.406614 234.318387 218.406614 235.59103 
L 218.406614 282.042482 
Q 218.406614 283.315124 219.914646 283.315124 
z
" style="fill: #dcefea; stroke: #008c7a; stroke-linejoin: miter"/>
   </g>
   <g id="patch_14">
    <path d="M 214.259528 222.864605 
L 301.348346 222.864605 
Q 302.856378 222.864605 302.856378 221.591962 
L 302.856378 149.68766 
Q 302.856378 148.415017 301.348346 148.415017 
L 214.259528 148.415017 
Q 212.751496 148.415017 212.751496 149.68766 
L 212.751496 221.591962 
Q 212.751496 222.864605 214.259528 222.864605 
z
" style="fill: #f9eaf3; stroke: #cc79a7; stroke-linejoin: miter"/>
   </g>
   <g id="patch_15">
    <path d="M 212.374488 89.23714 
L 380.52 89.23714 
Q 382.028031 89.23714 382.028031 87.964498 
L 382.028031 31.968227 
Q 382.028031 30.695584 380.52 30.695584 
L 212.374488 30.695584 
Q 210.866457 30.695584 210.866457 31.968227 
L 210.866457 87.964498 
Q 210.866457 89.23714 212.374488 89.23714 
z
" style="fill: #ffffff; stroke: #0072b2; stroke-linejoin: miter"/>
   </g>
   <g id="patch_16">
    <path d="M 310.396535 206.956573 
L 380.52 206.956573 
Q 382.028031 206.956573 382.028031 205.683931 
L 382.028031 149.68766 
Q 382.028031 148.415017 380.52 148.415017 
L 310.396535 148.415017 
Q 308.888504 148.415017 308.888504 149.68766 
L 308.888504 205.683931 
Q 308.888504 206.956573 310.396535 206.956573 
z
" style="fill: #f9eaf3; stroke: #cc79a7; stroke-linejoin: miter"/>
   </g>
   <g id="patch_17">
    <path d="M 311.527559 236.545512 
L 379.388976 236.545512 
L 379.388976 209.501858 
L 311.527559 209.501858 
z
" clip-path="url(#p18090acbc4)" style="fill: #ffffff; stroke: #cc79a7; stroke-width: 0.9; stroke-linejoin: miter"/>
   </g>
   <g id="patch_18">
    <path d="M 310.396535 280.133518 
L 380.52 280.133518 
Q 382.028031 280.133518 382.028031 278.860876 
L 382.028031 238.772636 
Q 382.028031 237.499994 380.52 237.499994 
L 310.396535 237.499994 
Q 308.888504 237.499994 308.888504 238.772636 
L 308.888504 278.860876 
Q 308.888504 280.133518 310.396535 280.133518 
z
" style="fill: #dcefea; stroke: #008c7a; stroke-linejoin: miter"/>
   </g>
   <g id="patch_19">
    <path d="M 311.527559 309.722457 
L 379.388976 309.722457 
L 379.388976 282.678803 
L 311.527559 282.678803 
z
" clip-path="url(#p18090acbc4)" style="fill: #ffffff; stroke: #008c7a; stroke-width: 0.9; stroke-linejoin: miter"/>
   </g>
   <g id="patch_20">
    <path d="M 17.838425 331.67554 
L 288.530079 331.67554 
Q 291.546142 331.67554 291.546142 329.130255 
L 291.546142 312.267742 
Q 291.546142 309.722457 288.530079 309.722457 
L 17.838425 309.722457 
Q 14.822362 309.722457 14.822362 312.267742 
L 14.822362 329.130255 
Q 14.822362 331.67554 17.838425 331.67554 
z
" style="fill: #f3f3f3; stroke: #666666; stroke-width: 0.7; stroke-linejoin: miter"/>
   </g>
   <g id="matplotlib.axis_1"/>
   <g id="matplotlib.axis_2"/>
   <g id="text_1">
    <text style="fill: #666666; font: 700 7.5px 'DejaVu Sans'; text-anchor: middle" x="53.277165" y="23.856618" transform="rotate(-0 53.277165 23.856618)">(a) INPUTS</text>
   </g>
   <g id="text_2">
    <text style="fill: #666666; font: 700 7.5px 'DejaVu Sans'; text-anchor: middle" x="151.299213" y="23.856618" transform="rotate(-0 151.299213 23.856618)">(b) REPRESENTATION</text>
   </g>
   <g id="text_3">
    <text style="fill: #666666; font: 700 7.5px 'DejaVu Sans'; text-anchor: middle" x="256.861417" y="23.856618" transform="rotate(-0 256.861417 23.856618)">(c) HEADS</text>
   </g>
   <g id="text_4">
    <text style="fill: #666666; font: 700 7.5px 'DejaVu Sans'; text-anchor: middle" x="345.458268" y="23.856618" transform="rotate(-0 345.458268 23.856618)">(d) CALIBRATION</text>
   </g>
   <g id="text_5">
    <text style="fill: #0072b2; font: 700 8px 'DejaVu Sans'" transform="translate(27.88749 61.33225)">7 VARIABLES</text>
    <text style="fill: #0072b2; font: 700 8px 'DejaVu Sans'" transform="translate(39.058115 69.378687)">+ MASK</text>
   </g>
   <g id="text_6">
    <text style="fill: #202020; font: 7.5px 'DejaVu Sans'" transform="translate(27.628662 84.265059)">WTEMP • FLOW</text>
    <text style="fill: #202020; font: 7.5px 'DejaVu Sans'" transform="translate(32.547607 92.777395)">TEMP • PRCP</text>
    <text style="fill: #202020; font: 7.5px 'DejaVu Sans'" transform="translate(30.154053 101.289731)">RHMEAN • DH</text>
    <text style="fill: #202020; font: 7.5px 'DejaVu Sans'" transform="translate(45.621631 109.802067)">WDSP</text>
   </g>
   <g id="text_7">
    <text style="fill: #d55e00; font: 700 7.5px 'DejaVu Sans'" transform="translate(28.22749 130.771235)">32-day buffer</text>
    <text style="fill: #d55e00; font: 700 7.5px 'DejaVu Sans'" transform="translate(20.018506 137.974445)">construction only</text>
    <text style="fill: #d55e00; font: 700 7.5px 'DejaVu Sans'" transform="translate(33.772217 145.177656)">≠ effective</text>
    <text style="fill: #d55e00; font: 700 7.5px 'DejaVu Sans'" transform="translate(39.629834 152.322274)">memory</text>
   </g>
   <g id="text_8">
    <text style="fill: #d55e00; font: 700 7.5px 'DejaVu Sans'; text-anchor: middle" x="58.932283" y="187.709342" transform="rotate(-0 58.932283 187.709342)">WLEVEL</text>
   </g>
   <g id="text_9">
    <text style="fill: #202020; font: 7.5px 'DejaVu Sans'; text-anchor: middle" x="58.932283" y="197.254161" transform="rotate(-0 58.932283 197.254161)">excluded</text>
   </g>
   <g id="text_10">
    <text style="fill: #986900; font: 700 8px 'DejaVu Sans'; text-anchor: middle" x="56.85874" y="241.298297" transform="rotate(-0 56.85874 241.298297)">ANCHOR A</text>
   </g>
   <g id="text_11">
    <text style="fill: #202020; font: 7.5px 'DejaVu Sans'" transform="translate(27.189795 254.711705)">frozen damped-</text>
    <text style="fill: #202020; font: 7.5px 'DejaVu Sans'" transform="translate(21.015771 261.970299)">persistence anchor</text>
   </g>
   <g id="text_12">
    <text style="fill: #202020; font: 7.5px 'DejaVu Sans'" transform="translate(30.383154 271.126528)">fitted blend of</text>
    <text style="fill: #202020; font: 7.5px 'DejaVu Sans'" transform="translate(38.436865 278.385122)">last y and</text>
    <text style="fill: #202020; font: 7.5px 'DejaVu Sans'" transform="translate(35.061279 285.643716)">climatology</text>
   </g>
   <g id="text_13">
    <text style="fill: #008c7a; font: 700 7.8px 'DejaVu Sans'; text-anchor: start" x="134.333858" y="76.435903" transform="rotate(-0 134.333858 76.435903)">SPARSE ROUTER</text>
   </g>
   <g id="text_14">
    <text style="fill: #202020; font: 7.5px 'DejaVu Sans'; text-anchor: middle" x="151.299213" y="95.44276" transform="rotate(-0 151.299213 95.44276)">7 variables • lags 0–14</text>
   </g>
   <g id="text_15">
    <text style="fill: #0072b2; font: 700 7.5px 'DejaVu Sans'; text-anchor: middle" x="154.126772" y="136.803641" transform="rotate(-0 154.126772 136.803641)">LEFT-LOOKING TCN</text>
   </g>
   <g id="text_16">
    <text style="fill: #202020; font: 7.5px 'DejaVu Sans'; text-anchor: middle" x="154.126772" y="151.12087" transform="rotate(-0 154.126772 151.12087)">2 blocks • kernel 3</text>
   </g>
   <g id="text_17">
    <text style="fill: #202020; font: 7.5px 'DejaVu Sans'; text-anchor: middle" x="154.126772" y="163.847295" transform="rotate(-0 154.126772 163.847295)">receptive field 7</text>
   </g>
   <g id="text_18">
    <text style="fill: #cc79a7; font: 700 7.5px 'DejaVu Sans'; text-anchor: middle" x="151.299213" y="205.208177" transform="rotate(-0 151.299213 205.208177)">MIXTURE OF</text>
   </g>
   <g id="text_19">
    <text style="fill: #cc79a7; font: 700 7.5px 'DejaVu Sans'; text-anchor: middle" x="151.299213" y="216.343799" transform="rotate(-0 151.299213 216.343799)">EXPERTS</text>
   </g>
   <g id="text_20">
    <text style="fill: #202020; font: 7.5px 'DejaVu Sans'" transform="translate(132.802924 223.850124)">combined</text>
    <text style="fill: #202020; font: 7.5px 'DejaVu Sans'" transform="translate(123.80058 231.108718)">representation</text>
   </g>
   <g id="text_21">
    <text style="fill: #008c7a; font: 700 7.8px 'DejaVu Sans'; text-anchor: middle" x="151.299213" y="264.150675" transform="rotate(-0 151.299213 264.150675)">PROPOSAL P</text>
   </g>
   <g id="text_22">
    <text style="fill: #202020; font: 7.5px 'DejaVu Sans'; text-anchor: middle" x="151.299213" y="279.975925" transform="rotate(-0 151.299213 279.975925)">learned relaxation κ</text>
   </g>
   <g id="patch_21">
    <path d="M 89.092913 87.010016 
Q 100.40315 85.419213 110.606249 83.98413 
" style="fill: none; stroke: #008c7a; stroke-linecap: round"/>
    <path d="M 106.790634 82.703085 
L 110.606249 83.98413 
L 107.292044 86.267996 
z
" style="fill: #008c7a; stroke: #008c7a; stroke-linecap: round"/>
   </g>
   <g id="patch_22">
    <path d="M 89.092913 115.644472 
Q 100.40315 131.552504 111.06554 146.54933 
" style="fill: none; stroke: #0072b2; stroke-linecap: round"/>
    <path d="M 110.44653 142.572292 
L 111.06554 146.54933 
L 107.512504 144.658316 
z
" style="fill: #0072b2; stroke: #0072b2; stroke-linecap: round"/>
   </g>
   <g id="patch_23">
    <path d="M 151.299213 109.28126 
Q 151.299213 149.051339 151.299213 187.703383 
" style="fill: none; stroke: #008c7a; stroke-linecap: round"/>
    <path d="M 153.099213 184.103383 
L 151.299213 187.703383 
L 149.499213 184.103383 
z
" style="fill: #008c7a; stroke: #008c7a; stroke-linecap: round"/>
   </g>
   <g id="patch_24">
    <path d="M 172.034646 172.913386 
Q 172.034646 180.867402 172.034646 187.703383 
" style="fill: none; stroke: #0072b2; stroke-linecap: round"/>
    <path d="M 173.834646 184.103383 
L 172.034646 187.703383 
L 170.234646 184.103383 
z
" style="fill: #0072b2; stroke: #0072b2; stroke-linecap: round"/>
   </g>
   <g id="patch_25">
    <path d="M 89.092913 141.097323 
Q 100.40315 204.729449 111.517729 267.260794 
" style="fill: none; stroke: #008c7a; stroke-linecap: round"/>
    <path d="M 112.659947 263.401346 
L 111.517729 267.260794 
L 109.115501 264.031351 
z
" style="fill: #008c7a; stroke: #008c7a; stroke-linecap: round"/>
   </g>
   <g id="text_23">
    <text style="fill: #0072b2; font: 700 7.5px 'DejaVu Sans'; text-anchor: start" x="243.666142" y="106.578382" transform="rotate(-0 243.666142 106.578382)">POINT HEAD</text>
   </g>
   <g id="text_24">
    <text style="fill: #202020; font: 7.5px 'DejaVu Sans'; text-anchor: middle" x="256.861417" y="122.486413" transform="rotate(-0 256.861417 122.486413)">MSE residual r</text>
   </g>
   <g id="text_25">
    <text style="fill: #008c7a; font: 700 7.5px 'DejaVu Sans'; text-anchor: start" x="243.666142" y="252.932271" transform="rotate(-0 243.666142 252.932271)">EVENT HEAD</text>
   </g>
   <g id="text_26">
    <text style="fill: #202020; font: 7.5px 'DejaVu Sans'; text-anchor: middle" x="256.861417" y="268.840303" transform="rotate(-0 256.861417 268.840303)">event score</text>
   </g>
   <g id="text_27">
    <text style="fill: #cc79a7; font: 700 7.5px 'DejaVu Sans'; text-anchor: start" x="238.011024" y="165.438098" transform="rotate(-0 238.011024 165.438098)">Q HEADS</text>
   </g>
   <g id="text_28">
    <text style="fill: #202020; font: 7.5px 'DejaVu Sans'; text-anchor: middle" x="257.803937" y="179.755327" transform="rotate(-0 257.803937 179.755327)">q50: separate</text>
   </g>
   <g id="text_29">
    <text style="fill: #202020; font: 7.5px 'DejaVu Sans'; text-anchor: middle" x="257.803937" y="194.072555" transform="rotate(-0 257.803937 194.072555)">anchor-bounded</text>
   </g>
   <g id="text_30">
    <text style="fill: #202020; font: 7.5px 'DejaVu Sans'; text-anchor: middle" x="257.803937" y="208.389783" transform="rotate(-0 257.803937 208.389783)">q05/q95: ± widths</text>
   </g>
   <g id="patch_26">
    <path d="M 190.885039 207.911055 
Q 205.965354 160.186961 220.7088 113.528943 
" style="fill: none; stroke: #0072b2; stroke-linecap: round"/>
    <path d="M 217.907753 116.419294 
L 220.7088 113.528943 
L 221.340453 117.503992 
z
" style="fill: #0072b2; stroke: #0072b2; stroke-linecap: round"/>
   </g>
   <g id="patch_27">
    <path d="M 190.885039 211.092661 
Q 205.965354 196.775433 220.234852 183.227994 
" style="fill: none; stroke: #cc79a7; stroke-linecap: round"/>
    <path d="M 216.384734 184.401275 
L 220.234852 183.227994 
L 218.863406 187.012057 
z
" style="fill: #cc79a7; stroke: #cc79a7; stroke-linecap: round"/>
   </g>
   <g id="patch_28">
    <path d="M 190.885039 214.274268 
Q 205.965354 231.773102 220.315796 248.42501 
" style="fill: none; stroke: #008c7a; stroke-linecap: round"/>
    <path d="M 219.329177 244.522885 
L 220.315796 248.42501 
L 216.602124 246.87303 
z
" style="fill: #008c7a; stroke: #008c7a; stroke-linecap: round"/>
   </g>
   <g id="text_31">
    <text style="fill: #0072b2; font: 700 7.8px 'DejaVu Sans'; text-anchor: middle" x="296.447244" y="44.61984" transform="rotate(-0 296.447244 44.61984)">ANCHOR-BOUND POINT</text>
   </g>
   <g id="text_32">
    <text style="fill: #202020; font: 7.5px 'DejaVu Sans'; text-anchor: middle" x="296.447244" y="54.244768" transform="rotate(-0 296.447244 54.244768)">ŷ = A + δ tanh(z / δ)</text>
   </g>
   <g id="text_33">
    <text style="fill: #202020; font: 7.5px 'DejaVu Sans'; text-anchor: middle" x="296.447244" y="63.626697" transform="rotate(-0 296.447244 63.626697)">z = P − A + r  •  δ = 1.0 °C</text>
   </g>
   <g id="text_34">
    <text style="fill: #d55e00; font: 700 7.5px 'DejaVu Sans'" transform="translate(232.311697 72.836999)">anchor deviation ≠ truth error</text>
    <text style="fill: #d55e00; font: 700 7.5px 'DejaVu Sans'" transform="translate(264.235916 79.810651)">≠ safety bound</text>
   </g>
   <g id="patch_29">
    <path d="M 256.861417 90.191622 
Q 256.861417 88.600819 256.861417 88.12805 
" style="fill: none; stroke: #0072b2; stroke-linecap: round"/>
    <path d="M 255.061417 91.72805 
L 256.861417 88.12805 
L 258.661417 91.72805 
z
" style="fill: #0072b2; stroke: #0072b2; stroke-linecap: round"/>
   </g>
   <g id="text_35">
    <text style="fill: #cc79a7; font: 700 8px 'DejaVu Sans'; text-anchor: middle" x="345.458268" y="167.16687" transform="rotate(-0 345.458268 167.16687)">CQR</text>
   </g>
   <g id="text_36">
    <text style="fill: #202020; font: 7.5px 'DejaVu Sans'; text-anchor: middle" x="345.458268" y="181.34613" transform="rotate(-0 345.458268 181.34613)">member average</text>
   </g>
   <g id="text_37">
    <text style="fill: #202020; font: 7.5px 'DejaVu Sans'; text-anchor: middle" x="345.458268" y="195.663358" transform="rotate(-0 345.458268 195.663358)">fit 2018 only</text>
   </g>
   <g id="patch_30">
    <path d="M 300.217323 182.458205 
Q 305.872441 182.458205 310.409525 182.458205 
" style="fill: none; stroke: #cc79a7; stroke-linecap: round"/>
    <path d="M 306.809525 180.658205 
L 310.409525 182.458205 
L 306.809525 184.258205 
z
" style="fill: #cc79a7; stroke: #cc79a7; stroke-linecap: round"/>
   </g>
   <g id="text_38">
    <text style="fill: #cc79a7; font: 700 7.5px 'DejaVu Sans'" transform="translate(319.429166 221.44731)">CALIBRATED</text>
    <text style="fill: #cc79a7; font: 700 7.5px 'DejaVu Sans'" transform="translate(324.976822 228.420962)">INTERVAL</text>
   </g>
   <g id="patch_31">
    <path d="M 345.458268 204.729449 
Q 345.458268 208.706457 345.458268 211.565431 
" style="fill: none; stroke: #cc79a7; stroke-linecap: round"/>
    <path d="M 347.258268 207.965431 
L 345.458268 211.565431 
L 343.658268 207.965431 
z
" style="fill: #cc79a7; stroke: #cc79a7; stroke-linecap: round"/>
   </g>
   <g id="text_39">
    <text style="fill: #008c7a; font: 700 8px 'DejaVu Sans'; text-anchor: middle" x="345.458268" y="253.07024" transform="rotate(-0 345.458268 253.07024)">PLATT</text>
   </g>
   <g id="text_40">
    <text style="fill: #202020; font: 7.5px 'DejaVu Sans'; text-anchor: middle" x="345.458268" y="268.840303" transform="rotate(-0 345.458268 268.840303)">fit 2018 only</text>
   </g>
   <g id="patch_32">
    <path d="M 292.677165 260.407559 
Q 302.102362 260.407559 310.409525 260.407559 
" style="fill: none; stroke: #008c7a; stroke-linecap: round"/>
    <path d="M 306.809525 258.607559 
L 310.409525 260.407559 
L 306.809525 262.207559 
z
" style="fill: #008c7a; stroke: #008c7a; stroke-linecap: round"/>
   </g>
   <g id="text_41">
    <text style="fill: #008c7a; font: 700 7.5px 'DejaVu Sans'" transform="translate(319.429166 294.624255)">CALIBRATED</text>
    <text style="fill: #008c7a; font: 700 7.5px 'DejaVu Sans'" transform="translate(317.562369 301.597907)">PROBABILITY</text>
   </g>
   <g id="patch_33">
    <path d="M 345.458268 277.906394 
Q 345.458268 281.883402 345.458268 284.742375 
" style="fill: none; stroke: #008c7a; stroke-linecap: round"/>
    <path d="M 347.258268 281.142375 
L 345.458268 284.742375 
L 343.658268 281.142375 
z
" style="fill: #008c7a; stroke: #008c7a; stroke-linecap: round"/>
   </g>
   <g id="text_42">
    <text style="fill: #202020; font: 700 7.5px 'DejaVu Sans'; text-anchor: middle" x="153.184252" y="322.898313" transform="rotate(-0 153.184252 322.898313)">κ / router: internal allocations ≠ physical routing</text>
   </g>
   <g id="PathCollection_1">
    <defs>
     <path id="m87d20e98db" d="M -1.25 2.5 
L 0 1.25 
L 1.25 2.5 
L 2.5 1.25 
L 1.25 0 
L 2.5 -1.25 
L 1.25 -2.5 
L 0 -1.25 
L -1.25 -2.5 
L -2.5 -1.25 
L -1.25 0 
L -2.5 1.25 
z
" style="stroke: #202020; stroke-width: 0.6"/>
    </defs>
    <g clip-path="url(#p18090acbc4)">
     <use xlink:href="#m87d20e98db" x="26.886614" y="190.41222" style="fill: #d55e00; stroke: #202020; stroke-width: 0.6"/>
    </g>
   </g>
   <g id="PathCollection_2">
    <defs>
     <path id="m4bd6cbb030" d="M -0 3.391165 
L 3.391165 0 
L 0 -3.391165 
L -3.391165 -0 
z
" style="stroke: #202020; stroke-width: 0.6"/>
    </defs>
    <g clip-path="url(#p18090acbc4)">
     <use xlink:href="#m4bd6cbb030" x="123.023622" y="74.283591" style="fill: #008c7a; stroke: #202020; stroke-width: 0.6"/>
    </g>
   </g>
   <g id="PathCollection_3">
    <defs>
     <path id="mf7dffb626d" d="M 0 -2.5 
L -2.5 2.5 
L 2.5 2.5 
z
" style="stroke: #202020; stroke-width: 0.6"/>
    </defs>
    <g clip-path="url(#p18090acbc4)">
     <use xlink:href="#mf7dffb626d" x="119.253543" y="137.915717" style="fill: #0072b2; stroke: #202020; stroke-width: 0.6"/>
    </g>
   </g>
   <g id="PathCollection_4">
    <defs>
     <path id="m0e86ee3391" d="M -2.291288 2.291288 
L 2.291288 2.291288 
L 2.291288 -2.291288 
L -2.291288 -2.291288 
z
" style="stroke: #202020; stroke-width: 0.6"/>
    </defs>
    <g clip-path="url(#p18090acbc4)">
     <use xlink:href="#m0e86ee3391" x="123.023622" y="207.911055" style="fill: #cc79a7; stroke: #202020; stroke-width: 0.6"/>
    </g>
   </g>
   <g id="PathCollection_5">
    <defs>
     <path id="m64b9c84c15" d="M 0 2.345208 
C 0.621956 2.345208 1.218523 2.098102 1.658312 1.658312 
C 2.098102 1.218523 2.345208 0.621956 2.345208 0 
C 2.345208 -0.621956 2.098102 -1.218523 1.658312 -1.658312 
C 1.218523 -2.098102 0.621956 -2.345208 0 -2.345208 
C -0.621956 -2.345208 -1.218523 -2.098102 -1.658312 -1.658312 
C -2.098102 -1.218523 -2.345208 -0.621956 -2.345208 0 
C -2.345208 0.621956 -2.098102 1.218523 -1.658312 1.658312 
C -1.218523 2.098102 -0.621956 2.345208 0 2.345208 
z
" style="stroke: #202020; stroke-width: 0.6"/>
    </defs>
    <g clip-path="url(#p18090acbc4)">
     <use xlink:href="#m64b9c84c15" x="232.355906" y="104.50885" style="fill: #0072b2; stroke: #202020; stroke-width: 0.6"/>
    </g>
   </g>
   <g id="PathCollection_6">
    <defs>
     <path id="mcae150d634" d="M 0 -2.345208 
L -2.345208 2.345208 
L 2.345208 2.345208 
z
" style="stroke: #202020; stroke-width: 0.6"/>
    </defs>
    <g clip-path="url(#p18090acbc4)">
     <use xlink:href="#mcae150d634" x="232.355906" y="250.86274" style="fill: #008c7a; stroke: #202020; stroke-width: 0.6"/>
    </g>
   </g>
   <g id="PathCollection_7">
    <defs>
     <path id="m1337ab2834" d="M -0 3.316625 
L 3.316625 0 
L 0 -3.316625 
L -3.316625 -0 
z
" style="stroke: #202020; stroke-width: 0.6"/>
    </defs>
    <g clip-path="url(#p18090acbc4)">
     <use xlink:href="#m1337ab2834" x="226.700787" y="163.368567" style="fill: #cc79a7; stroke: #202020; stroke-width: 0.6"/>
    </g>
   </g>
  </g>
 </g>
 <defs>
  <clipPath id="p18090acbc4">
   <rect x="9.92126" y="13.833071" width="377.007874" height="318.16063"/>
  </clipPath>
 </defs>
 <defs>
  <pattern id="hca565c2b4f" patternUnits="userSpaceOnUse" x="0" y="0" width="72" height="72">
   <rect x="0" y="0" width="73" height="73" fill="#f9e3d6"/>
   <path d="M -36 36 
L 36 -36 
M -32 40 
L 40 -32 
M -28 44 
L 44 -28 
M -24 48 
L 48 -24 
M -20 52 
L 52 -20 
M -16 56 
L 56 -16 
M -12 60 
L 60 -12 
M -8 64 
L 64 -8 
M -4 68 
L 68 -4 
M 0 72 
L 72 0 
M 4 76 
L 76 4 
M 8 80 
L 80 8 
M 12 84 
L 84 12 
M 16 88 
L 88 16 
M 20 92 
L 92 20 
M 24 96 
L 96 24 
M 28 100 
L 100 28 
M 32 104 
L 104 32 
M 36 108 
L 108 36 
" style="fill: #d55e00; stroke: #d55e00; stroke-width: 1.0; stroke-linecap: butt; stroke-linejoin: miter"/>
  </pattern>
 </defs>
</svg>
